HIERARCHY
ROOT Hips
{
    OFFSET 0.000000 0.000000 0.000000
    CHANNELS 6 Xposition Yposition Zposition Zrotation Xrotation Yrotation
    JOINT Chest
    {
        OFFSET -0.000000 0.078598 0.000000
        CHANNELS 3 Zrotation Xrotation Yrotation
        JOINT Chest2
        {
            OFFSET -0.000000 0.230468 0.000000
            CHANNELS 3 Zrotation Xrotation Yrotation
            JOINT Neck
            {
                OFFSET -0.000000 0.249638 0.000000
                CHANNELS 3 Zrotation Xrotation Yrotation
                JOINT Head
                {
                    OFFSET -0.000000 0.103998 0.019170
                    CHANNELS 3 Zrotation Xrotation Yrotation
                    End Site
                    {
                        OFFSET -0.000000 0.191701 0.000000
                    }
                }
            }
            JOINT LeftCollar
            {
                OFFSET 0.038274 0.205938 -0.001496
                CHANNELS 3 Zrotation Xrotation Yrotation
                JOINT LeftShoulder
                {
                    OFFSET 0.132388 0.000000 0.000000
                    CHANNELS 3 Zrotation Xrotation Yrotation
                    JOINT LeftElbow
                    {
                        OFFSET 0.250301 0.000000 0.000000
                        CHANNELS 3 Zrotation Xrotation Yrotation
                        JOINT LeftWrist
                        {
                            OFFSET 0.285291 0.000000 0.000000
                            CHANNELS 3 Zrotation Xrotation Yrotation
                            End Site
                            {
                                OFFSET 0.000000 -0.143776 0.000000
                            }
                        }
                    }
                }
            }
            JOINT RightCollar
            {
                OFFSET -0.038406 0.205938 -0.001496
                CHANNELS 3 Zrotation Xrotation Yrotation
                JOINT RightShoulder
                {
                    OFFSET -0.132388 0.000000 0.000000
                    CHANNELS 3 Zrotation Xrotation Yrotation
                    JOINT RightElbow
                    {
                        OFFSET -0.250301 0.000000 0.000000
                        CHANNELS 3 Zrotation Xrotation Yrotation
                        JOINT RightWrist
                        {
                            OFFSET -0.285291 0.000000 0.000000
                            CHANNELS 3 Zrotation Xrotation Yrotation
                            End Site
                            {
                                OFFSET -0.000000 -0.143776 0.000000
                            }
                        }
                    }
                }
            }
        }
    }
    JOINT LeftHip
    {
        OFFSET 0.095851 0.000000 0.000000
        CHANNELS 3 Zrotation Xrotation Yrotation
        JOINT LeftKnee
        {
            OFFSET -0.000000 -0.406444 0.000000
            CHANNELS 3 Zrotation Xrotation Yrotation
            JOINT LeftAnkle
            {
                OFFSET -0.000000 -0.408443 0.000000
                CHANNELS 3 Zrotation Xrotation Yrotation
                JOINT LeftToe
                {
                    OFFSET -0.000000 -0.062303 0.143776
                    CHANNELS 3 Zrotation Xrotation Yrotation
                    End Site
                    {
                        OFFSET -0.000000 0.000000 0.038340
                    }
                }
            }
        }
    }
    JOINT RightHip
    {
        OFFSET -0.095851 0.000000 0.000000
        CHANNELS 3 Zrotation Xrotation Yrotation
        JOINT RightKnee
        {
            OFFSET -0.000000 -0.406444 0.000000
            CHANNELS 3 Zrotation Xrotation Yrotation
            JOINT RightAnkle
            {
                OFFSET -0.000000 -0.408443 0.000000
                CHANNELS 3 Zrotation Xrotation Yrotation
                JOINT RightToe
                {
                    OFFSET -0.000000 -0.062303 0.143776
                    CHANNELS 3 Zrotation Xrotation Yrotation
                    End Site
                    {
                        OFFSET -0.000000 0.000000 0.038340
                    }
                }
            }
        }
    }
}
MOTION
Frames:    7
Frame Time:    0.016667
-0.020674    0.892874    1.448583    -0.208580    2.513573    -178.153915    0.155415    -1.654108    2.618741    -2.663271    3.356808    0.950312    -0.419490    12.126694    0.583135    0.071081    -2.479686    0.494340    11.893397    -2.139961    -2.564971    -12.823535    1.873986    -11.116510    -1.130164    -7.854854    -1.497485    87.497742    -3.958539    7.782990    -12.671867    -0.977877    2.303620    18.809269    -4.148426    0.597539    -3.886082    -8.881112    -1.839505    -82.529091    3.270609    -9.156365    3.942178    8.032498    0.605648    -0.868543    -3.886027    1.470701    -4.973453    -6.319917    12.997956    0.000000    0.000000    0.000000    -4.619985    10.572416    3.591600    0.644172    -11.493885    -1.323657    3.388572    -1.102056    -15.125289    0.000000    0.000000    0.000000    
-0.020613    0.892860    1.448509    -0.206340    2.512828    -178.132904    0.133208    -1.672464    2.601181    -2.648047    3.362520    0.944200    -0.394708    12.112727    0.584535    0.044138    -2.507442    0.504764    11.935649    -1.897767    -2.423398    -12.886742    1.617069    -11.367806    -1.171042    -7.791388    -1.450102    88.024323    -3.741998    7.741535    -12.663688    -0.970480    2.334253    18.808405    -4.161598    0.580820    -3.890200    -8.850855    -1.898012    -82.472008    3.193814    -9.124718    3.948260    8.039154    0.600844    -0.864229    -3.894698    1.475456    -4.984107    -6.301836    12.984240    0.000000    0.000000    0.000000    -4.620926    10.584075    3.598133    0.660733    -11.502069    -1.330246    3.373260    -1.107635    -15.144788    0.000000    0.000000    0.000000    
-0.020441    0.892855    1.448562    -0.195619    2.500845    -178.104370    0.130681    -1.655136    2.606075    -2.676846    3.335829    0.946158    -0.355742    12.058739    0.579089    0.069994    -2.443555    0.505764    11.845147    -2.106705    -2.608597    -12.756222    1.900146    -11.083374    -1.058651    -7.715098    -1.496359    86.643639    -4.165056    7.606717    -12.647146    -1.006834    2.280133    18.845339    -4.155017    0.584292    -3.877433    -8.790419    -1.893969    -82.506599    3.185092    -9.062415    3.984342    8.025244    0.575996    -0.895398    -3.921034    1.480672    -4.960509    -6.271728    12.996543    0.000000    0.000000    0.000000    -4.591191    10.560266    3.583863    0.653495    -11.473074    -1.332360    3.332457    -1.135922    -15.136299    0.000000    0.000000    0.000000    
-0.020267    0.892849    1.448537    -0.181247    2.491570    -178.068192    0.116215    -1.664250    2.586003    -2.674919    3.322301    0.939184    -0.324389    12.093075    0.541447    0.065000    -2.539872    0.474908    11.837996    -2.096200    -2.631091    -12.744114    1.903025    -11.067896    -1.120323    -7.887974    -1.563365    87.007217    -4.121217    7.795415    -12.630920    -0.985973    2.281471    18.783972    -4.414256    0.564497    -3.711676    -8.616892    -1.882730    -82.702850    3.093792    -8.874536    4.020177    8.009225    0.589798    -0.896370    -3.912952    1.410894    -4.966686    -6.302955    12.964772    0.000000    0.000000    0.000000    -4.557620    10.547970    3.583593    0.646178    -11.450082    -1.357462    3.327989    -1.165532    -15.158426    0.000000    0.000000    0.000000    
-0.020158    0.892852    1.448523    -0.173135    2.489791    -178.039383    0.109543    -1.665992    2.573153    -2.705094    3.319853    0.935724    -0.285734    12.064909    0.542795    0.087571    -2.545730    0.483266    11.876061    -2.106176    -2.628744    -12.757399    1.884184    -11.080324    -1.141332    -7.846710    -1.555919    86.994865    -4.138013    7.753477    -12.582852    -0.974941    2.296251    18.761942    -4.397544    0.568032    -3.684072    -8.591043    -1.958009    -82.711304    3.182770    -8.856083    4.041939    8.009363    0.587217    -0.915686    -3.937816    1.407610    -5.018456    -6.328115    12.971004    0.000000    0.000000    0.000000    -4.537318    10.544814    3.584564    0.642330    -11.435629    -1.376958    3.312653    -1.172305    -15.160832    0.000000    0.000000    0.000000    
-0.020084    0.892825    1.448571    -0.165504    2.474631    -178.011246    0.104027    -1.657116    2.544578    -2.681685    3.306616    0.925258    -0.345852    12.059079    0.505275    0.109067    -2.521840    0.427768    11.902953    -1.879956    -2.441400    -12.819269    1.605414    -11.354519    -1.153654    -7.797835    -1.478475    87.021278    -4.144886    7.704773    -12.631484    -0.968471    2.225227    18.871433    -4.266693    0.668228    -3.804492    -8.692598    -1.980579    -82.461906    3.305062    -8.975412    4.052294    7.983499    0.587577    -0.907831    -3.928600    1.401754    -4.960276    -6.283602    12.958315    0.000000    0.000000    0.000000    -4.527442    10.569832    3.575280    0.648271    -11.427099    -1.392681    3.301628    -1.294972    -15.195831    0.000000    0.000000    0.000000    
-0.020021    0.892781    1.448483    -0.161323    2.458113    -178.003235    0.092693    -1.692747    2.538359    -2.703846    3.308960    0.923938    -0.244521    12.119448    0.455950    -0.048179    -2.662522    0.417686    11.974301    -1.943595    -2.421876    -12.780540    1.323181    -11.267385    -1.553354    -7.506496    -1.613533    87.276138    -4.004982    7.432928    -12.577818    -0.942509    2.269345    18.759899    -4.504224    0.592453    -3.640122    -8.629628    -1.926991    -82.510353    3.328497    -8.908093    4.057225    7.988590    0.609755    -0.901978    -3.961726    1.384039    -4.960404    -6.282167    12.961926    0.000000    0.000000    0.000000    -4.519232    10.524850    3.589972    0.648864    -11.441006    -1.426597    3.322493    -1.185585    -15.152784    0.000000    0.000000    0.000000    
